<svg width="110" height="71" viewBox="0 0 110 71" fill="none" xmlns="http://www.w3.org/2000/svg">
<path d="M8.05535 22.7396L2.65334 16.6146C-3.04187 10.1571 1.54308 0 10.1532 0H68.9126C77.494 0 82.0895 10.0983 76.4527 16.5687L62.2834 32.8334C58.2924 37.4146 51.172 37.4075 47.1902 32.8184L44.3728 29.5714C42.4735 27.3823 39.7178 26.125 36.8197 26.125H15.5552C12.6853 26.125 9.95367 24.892 8.05535 22.7396Z" fill="#00B4D8"/>
<path d="M35.6885 28.2738H35.1625C26.5844 28.2738 21.9877 38.3655 27.6179 44.8373L47.1924 67.3378C51.1755 71.9163 58.2855 71.9204 62.2739 67.3465L106.549 16.5722C112.19 10.1028 107.596 0 99.0121 0H98.5971C95.7257 0 92.9929 1.23427 91.0946 3.38852L62.1631 36.2193C58.1654 40.7557 51.0875 40.7341 47.1176 36.1732L43.2313 31.7084C41.3322 29.5264 38.5812 28.2738 35.6885 28.2738Z" fill="#00B4D8"/>
</svg>
